<svg version="1.1" id="Layer_1" xmlns="http://www.w3.org/2000/svg" x="0" y="0" width="48" height="48" viewBox="0 0 48 48" xml:space="preserve"><path d="M17.7 29.9v-3.6c0-.5-.3-.7-.7-.3l-6.8 5.6c-.4.3-.4.8 0 1.2l6.8 5.6c.4.3.7.2.7-.3v-3.6h12.7V38c0 .5.3.7.7.3l6.8-5.6c.4-.3.4-.8 0-1.2L31 25.9c-.4-.3-.7-.2-.7.3v3.6H17.7zM40.3 4.5h3.6c2 0 3.6 1.6 3.6 3.6v36.2c0 2-1.6 3.6-3.6 3.6H4.1c-2 0-3.6-1.6-3.6-3.6V8.2c0-2 1.6-3.6 3.6-3.6h3.6V9c0 2 1.6 3.6 3.6 3.6h1.8c2 0 3.6-1.6 3.6-3.6V4.5h14.5V9c0 2 1.6 3.6 3.6 3.6h1.8c2 0 3.6-1.6 3.6-3.6V4.5zM9.5 1.8c0-1 .8-1.8 1.8-1.8h1.8c1 0 1.8.8 1.8 1.8V9c0 1-.8 1.8-1.8 1.8h-1.8c-1 0-1.8-.8-1.8-1.8V1.8zm23.6 0c0-1 .8-1.8 1.8-1.8h1.8c1 0 1.8.8 1.8 1.8V9c0 1-.8 1.8-1.8 1.8h-1.8c-1 0-1.8-.8-1.8-1.8V1.8z" fill="#ff1300"/></svg>