<svg version="1.1" id="Layer_1" xmlns="http://www.w3.org/2000/svg" x="0" y="0" width="39" height="26" xml:space="preserve"><switch><g><path d="M32.9 25.7H7.6c-3.3 0-6-2.7-6-6V7.8c0-3.3 2.7-6 6-6H33c3.3 0 6 2.7 6 6v11.9c-.1 3.3-2.8 6-6.1 6" fill-rule="evenodd" clip-rule="evenodd" fill="#ccc"/><path d="M31.4 24.2H6.1c-3.3 0-6-2.7-6-6V6.3c0-3.3 2.7-6 6-6h25.4c3.3 0 6 2.7 6 6v11.9c-.1 3.3-2.8 6-6.1 6" fill-rule="evenodd" clip-rule="evenodd" fill="#f7f6f5"/><path d="M24.5 14.9c.2-.2.1-.5-.1-.7-.1-.1-.3 0-.6.2-.2.1-.4.3-.7.5-.3.2-.6.5-.9.8-2 1.7-3.1 2.5-3.4 2.4 0 0-.9-.7-2.6-2.4-1.2-1-1.8-1.5-1.9-1.6-.5-.2-.7-.1-.7.2 0 .2 0 .4.2.6l.3.3.1.1.1.1.1.1 1.2 1c2 1.9 3.1 2.7 3.3 2.7.3 0 1.6-.9 4-2.9l1.6-1.4zm0-7.8c.2-.2.1-.5-.1-.7-.1-.1-.3 0-.6.2-.2.1-.4.3-.7.5-.3.2-.6.5-.9.8-2 1.7-3.1 2.5-3.4 2.4 0 0-.9-.7-2.6-2.4-1.2-1-1.8-1.5-1.9-1.6-.5-.2-.7-.1-.7.2 0 .2 0 .4.2.6l.2.3.1.1.1.1.1.1 1.2 1c2 1.9 3.1 2.7 3.3 2.7.3 0 1.6-.9 4-2.9l1.7-1.4z" fill="#434345"/></g></switch></svg>