<svg version="1.1" xmlns="http://www.w3.org/2000/svg" x="0" y="0" viewBox="0 0 15 16" xml:space="preserve"><switch><g><path d="M15 15.5V8.6c0-1.4-.6-2.7-1.6-3.7-1-1.1-2.4-1.6-3.8-1.6-1.5 0-2.8.5-3.9 1.6-1 1-1.6 2.3-1.6 3.7 0 .3.2.5.5.5s.5-.2.5-.5c0-1.2.5-2.2 1.3-3 .9-.9 1.9-1.3 3.1-1.3 1.3 0 2.3.4 3.1 1.3.8.9 1.3 1.8 1.3 3h.5-.4v6.9c0 .3.2.5.5.5s.5-.3.5-.5zM2.3.8l.4-.4C2.3.2 1.9 0 1.5 0 1.1 0 .7.2.5.4.2.7 0 1.1 0 1.5c0 .4.2.8.4 1.1.3.3.7.5 1.1.4.4 0 .8-.2 1.1-.4.3-.3.5-.7.4-1.1 0-.4-.2-.8-.4-1.1l-.3.4-.4.4c.1.1.2.2.2.3 0 .2 0 .3-.2.4-.1.1-.2.1-.4.1-.1 0-.2 0-.3-.1-.2-.1-.2-.2-.2-.4s0-.3.2-.4c.1-.1.2-.1.3-.1.2 0 .3 0 .4.2l.4-.4z"/><path d="M5.1 15.5V8.6c0-.3-.2-.5-.5-.5s-.5.2-.5.5v6.9c0 .3.2.5.5.5s.5-.3.5-.5"/><path d="M5.1 8.6V4.1c0-.3-.2-.5-.5-.5s-.5.2-.5.5v4.5c0 .3.2.5.5.5s.5-.2.5-.5m-3.3 6.9V4.1c0-.3-.2-.5-.5-.5s-.5.2-.5.5v11.3c0 .3.2.5.5.5s.5-.2.5-.4"/></g></switch></svg>