<svg version="1.1" xmlns="http://www.w3.org/2000/svg" x="0" y="0" viewBox="0 0 22 18" xml:space="preserve"><switch><g><g fill="#5c5a5b"><path d="M15.5 7.4c.4 0 .6-.3.6-.6 0-.4-.3-.6-.6-.6-.4 0-.6.3-.6.6s.2.6.6.6z"/><circle cx="6.5" cy="6.8" r=".6"/><path d="M18.5 5.9h-1c.1.3.2.5.2.8 0 .2 0 .4-.1.5h.8c1.7 0 2.1.3 2.1 1.1l-1.8 6.5v.2c0 .5-1.1.8-1.7 1-1.3.3-3 .3-4.1.3h-4c-5.3 0-5.8-.9-5.8-1.3v-.1L1.4 8.4c0-.8.3-1.1 2.1-1.1h.8c0-.2-.1-.4-.1-.5 0-.3.1-.6.2-.8h-.9C2.5 6 .1 6 .1 8.6v.1l1.8 6.5c.1 2.5 5.1 2.5 7.2 2.5H13c1.2 0 3 0 4.4-.3 1.8-.4 2.7-1.1 2.8-2.2L22 8.7v-.2c-.1-2.6-2.5-2.6-3.5-2.6z"/><path d="M8.5 6c.1.2.2.5.2.8 0 .2 0 .4-.1.6h4.8c0-.2-.1-.4-.1-.6 0-.3.1-.6.2-.8h-5zm5.9-1.1c.1.2.1.4.2.7-.4.3-.6.7-.6 1.2 0 .9.7 1.5 1.5 1.5.9 0 1.5-.7 1.5-1.5s-.6-1.5-1.4-1.5c-.1-.2-.1-.4-.2-.7C15 3.3 14.7 2 14.3.8c-.2-.7-1.3-.5-1.1.2l1.2 3.9zm1.1 1.2c.4 0 .6.3.6.6 0 .4-.3.6-.6.6-.4 0-.6-.3-.6-.6s.2-.6.6-.6zm-9 2.2c.8 0 1.5-.7 1.5-1.5 0-.5-.2-.9-.6-1.2.1-.2.1-.4.2-.7L8.8 1C9 .3 7.9 0 7.7.7 7.3 2 6.9 3.3 6.6 4.6c-.1.2-.2.4-.2.6C5.6 5.3 5 6 5 6.8s.6 1.5 1.5 1.5zm0-2.2c.4 0 .6.3.6.6 0 .4-.3.6-.6.6-.4 0-.6-.3-.6-.6s.2-.6.6-.6zm5.4 8.1c.8-.7 1.6-1.3 2.3-2 .2-.2.2-.6 0-.8-.8-.7-1.6-1.3-2.3-2-.6-.5-1.4.3-.8.8.4.3.8.7 1.2 1H8.2c-.7 0-.7 1.1 0 1.1h4.1c-.4.3-.8.7-1.2 1-.6.6.2 1.4.8.9z"/></g></g></switch></svg>