<svg version="1.1" xmlns="http://www.w3.org/2000/svg" x="0" y="0" viewBox="0 0 18.2 17.1" xml:space="preserve"><switch><g><path d="M15.7.9c-.1-.1-.3-.2-.4-.2-.4 0-.7.3-.7.7 0 .3.1.5.3.6.2.1.4.2.4.3.2.2.5.4.7.8.1.2.3.4.4.8.1.2.2.6.3 1.2v1c-.1.5-.2.9-.2.9-.1.3-.3.8-.6 1.2l-.1.2s-.2.3-.5.7c-.5.7-1.2 1.5-1.2 1.5-.6.7-1 1.1-1.8 2-.3.4-.6.6-.8.8-.2.3-.4.4-.8.8l-.5.5c-.3.3-.6.5-.7.7l-.2.1-.2.1h-.2l-.2-.1-.2-.1c-.2-.1-.4-.4-.7-.7l-.5-.5-.8-.8c-.2-.2-.4-.5-.8-.8-.8-.9-1.3-1.4-1.8-2 0 0-.6-.8-1.2-1.5-.1-.3-.4-.7-.4-.7l-.1-.2c-.3-.5-.4-.9-.5-1.2 0-.1-.1-.5-.2-.9 0-.3-.1-.6 0-1 .1-.6.2-1 .3-1.2.1-.3.3-.6.4-.8.3-.4.5-.6.7-.8.1 0 .3-.1.5-.3.1 0 .4-.2.7-.3.1-.1.3-.1.3-.1s.1 0 .2-.1c.1 0 .2-.1.5-.1h.8c.1 0 .2 0 .4.1.1 0 .3.1.5.1l.4.2c.1 0 .2.1.4.2.3.1.4.2.5.3.2.1.3.3.5.4 0 0 .1.1.2.1h.6c.1 0 .2-.1.2-.1.2-.1.3-.3.5-.4.1-.1.2-.2.4-.3.2-.1.3-.2.4-.2l.4-.2c.2-.1.4-.1.5-.1.2 0 .3 0 .4-.1h.1c.4 0 .7-.3.7-.7 0-.4-.3-.7-.7-.7h-.2c-1 .1-2.1.6-3 1.3C8.2.5 6.9 0 5.6 0 2.5 0 0 2.5 0 5.5v1c.2 1.5.8 3.4 6.2 8.8 1.3 1.3 1.9 1.8 2.8 1.9.9 0 1.5-.6 3-2 5.2-5.2 5.8-7 6.1-8.5V5.5c.1-1.9-.9-3.6-2.4-4.6" fill="#f66"/></g></switch></svg>