<svg version="1.1" xmlns="http://www.w3.org/2000/svg" x="0" y="0" viewBox="0 0 7.8 15.9" xml:space="preserve"><switch><g><path d="M7.7 1.1L7.5.9C6.9.3 6.1 0 5.3 0 4.4 0 3.6.3 3 .9c-.6.7-.9 1.4-.9 2.3v4c0 .3.2.5.5.5s.5-.2.5-.5v-4h-.5.5c0-.6.2-1.1.6-1.5l-.3-.4.4.4c.4-.5.8-.7 1.5-.7.6 0 1.1.2 1.6.6l.4-.4-.5.4.1.1c.2.2.5.3.7.1.2-.2.2-.5.1-.7z"/><path d="M5 6.6H2.6c-.3 0-.5.2-.5.5s.2.5.5.5H5c.3 0 .5-.2.5-.5s-.2-.5-.5-.5"/><path d="M2.6 6.6h-2c-.4 0-.6.3-.6.5s.2.5.5.5h2c.3 0 .5-.2.5-.5s-.2-.5-.4-.5"/><path d="M2.1 7.1v8.2c0 .3.2.5.5.5s.5-.2.5-.5V7.1c0-.3-.2-.5-.5-.5s-.5.3-.5.5"/></g></switch></svg>