<svg version="1.1" id="Layer_1" xmlns="http://www.w3.org/2000/svg" x="0" y="0" width="34" height="36" xml:space="preserve"><switch><g><path d="M17 .1c-1.6 0-3.1 1-4.3 2.7-.8 1.1-1.4 2.6-1.8 4.4l-5.5.1c-.2 0-.4.1-.4.3L.2 35.4c0 .2.1.4.3.5h32.9c.2 0 .4-.2.4-.4v-.1L28.3 7.3c0-.2-.2-.3-.4-.3l-5.1.1c-.5-1.9-1.2-3.4-1.9-4.5C19.8 1 18.4.1 17 .1zm0 .8c1.1 0 2.2.7 3.3 2.1.7 1 1.3 2.3 1.8 4l-10.3.2V7c.4-1.5.9-2.8 1.6-3.7 1-1.6 2.3-2.4 3.6-2.4zm10.6 6.9L32.9 35H1.1L5.7 8.1l5-.1c-.1.6-.2 1.1-.2 1.7-.2.1-.4.2-.5.4-.2.2-.2.5-.2.8 0 .3.1.6.2.8.2.2.4.4.8.4.3 0 .6-.2.8-.4.1-.2.2-.5.2-.8v-.2c0-.1 0-.2-.1-.3 0-.1-.1-.2-.1-.3l-.1-.2v.1l-.1-.1c.1-.7.1-1.3.3-1.9l10.6-.1c.2.6.3 1.3.4 2.1l-.2.2c-.2.2-.2.5-.2.8 0 .3.1.6.2.8.2.2.4.4.8.4s.6-.2.8-.4c.2-.2.2-.5.2-.8s-.1-.6-.2-.8c-.1-.2-.3-.3-.5-.4-.1-.7-.2-1.3-.4-1.9l4.4-.1zm-16.8 2.7c.1.1.2.3.2.4 0 .2-.1.3-.1.4l-.1.1-.1-.1c-.1-.1-.1-.2-.1-.4s.1-.2.2-.4zm12.4.1c.1.1.2.3.2.4 0 .2 0 .3-.1.4l-.1.1-.1-.1-.1-.2v-.4l.2-.2z"/></g></switch></svg>