<svg version="1.1" xmlns="http://www.w3.org/2000/svg" x="0" y="0" viewBox="0 0 26 24" xml:space="preserve"><path fill="#32312F" d="M22.162 1.316a1.002 1.002 0 0 0-1.624.783c0 .35.184.658.46.835l-.001.002a5.738 5.738 0 0 1 1.623 1.509 5.414 5.414 0 0 1 1.045 2.71 6.06 6.06 0 0 1-.02 1.349 7.61 7.61 0 0 1-.25 1.323 6.98 6.98 0 0 1-.774 1.729c-.04.066-.101.168-.177.289 0 0-.286.46-.628.943-.714 1.004-1.617 2.086-1.617 2.086-.781.933-1.388 1.586-2.532 2.818a86.939 86.939 0 0 1-2.128 2.209c-.364.369-.55.557-.712.713-.418.402-.775.713-1.018.918a4.172 4.172 0 0 1-.298.205 1.71 1.71 0 0 1-.273.141l-.179.045-.059.004-.062-.002-.177-.045a1.608 1.608 0 0 1-.274-.141 4.185 4.185 0 0 1-.297-.205 21.505 21.505 0 0 1-1.019-.918 46.94 46.94 0 0 1-.712-.713c-.463-.467-.72-.727-1.059-1.078-.263-.275-.6-.627-1.067-1.131-1.146-1.232-1.752-1.886-2.532-2.818 0 0-.905-1.082-1.618-2.086-.341-.482-.628-.943-.628-.943-.075-.121-.136-.223-.176-.289a6.937 6.937 0 0 1-1.026-3.053 6.193 6.193 0 0 1-.019-1.349 5.414 5.414 0 0 1 1.046-2.71 5.642 5.642 0 0 1 1.623-1.509 5.84 5.84 0 0 1 .975-.487c.193-.073.371-.126.399-.135.05-.015.163-.046.311-.082.08-.018.337-.077.688-.118.151-.018.332-.038.574-.043.224-.003.394.01.537.02.142.013.332.027.577.07.133.023.409.076.749.188a6.281 6.281 0 0 1 1.183.534c.251.149.427.284.544.374.237.185.479.37.694.562.027.025.147.131.305.199l.181.061.147.026.133.008.132-.008.148-.026.18-.061c.158-.068.277-.174.305-.199.217-.192.457-.377.695-.562a5.259 5.259 0 0 1 1.133-.678 5.635 5.635 0 0 1 1.342-.418c.246-.043.436-.058.578-.07l.127-.007-.001-.002c.556 0 1.007-.447 1.007-.997 0-.552-.451-.998-1.007-.998L17.43.11A7.758 7.758 0 0 0 13 1.858 7.767 7.767 0 0 0 8.038.079C3.756.079.284 3.518.284 7.759c.004.154.013.372.032.631l.02.229c.015.152.03.312.054.484.274 2.04 1.154 4.677 8.69 12.234 1.796 1.801 2.669 2.578 3.92 2.584 1.269.008 2.162-.781 4.115-2.76 7.215-7.309 8.129-9.808 8.453-11.851a14.706 14.706 0 0 0 .13-1.191 8.82 8.82 0 0 0 .018-.361c0-2.704-1.419-5.073-3.554-6.442"/></svg>