<svg version="1.1" xmlns="http://www.w3.org/2000/svg" x="0" y="0" viewBox="0 0 18.8 16" xml:space="preserve"><switch><g><path d="M16.4 2.8l.4.3c.6-.6 1.1-1.2 1.5-1.7.1-.2.1-.4 0-.6s-.3-.2-.6-.2c-.6.3-1.1.4-1.7.6l.1.5-.1-.5c-.2 0-.4.1-.6.1l.1.5.4-.4-.2-.2-.4.4.4-.4c-.8-.8-1.8-1.3-3-1.3h-.1v.5-.5h-.1c-1.2 0-2.2.4-3 1.3l.5.4-.4-.3c-.8.8-1.3 1.8-1.3 3v.1h.5-.5c0 .3 0 .6.1.9l.5-.1v-.5h-.1C5.9 4.6 3.5 3.4 1.4 1 1.3.9 1.2.8 1 .8s-.3.1-.4.3C.3 1.8.1 2.5.1 3.2c0 1.3.6 2.5 1.6 3.5l.4-.3v-.5H2c-.5 0-.8-.1-1.2-.3L.5 6l.3-.4c-.2-.1-.4-.1-.5 0-.2 0-.3.2-.3.4s0 .5.1.7c.2.8.5 1.5 1.1 2.1.6.6 1.3 1.1 2.2 1.4l.2-.5-.3-.4c-.3.1-.6.2-.9.2-.3 0-.6-.1-.9-.2-.2-.2-.4-.1-.6 0-.1.2-.2.4-.1.6.8 1.7 2.3 2.7 4.4 3l.1-.5L5 12c-1.2 1-2.6 1.5-4.2 1.5H.7c-.2 0-.4.1-.5.4-.1.2 0 .4.2.6C2.1 15.5 4 16 6.1 16h.5c2.8-.2 5.3-1.2 7.2-3.2C16 10.7 17 8 17 5v-.9h-.5l.2.4c.7-.4 1.4-1 1.9-1.8.1-.2.1-.4 0-.6-.1-.2-.4-.2-.6-.1-.5.2-1.1.4-1.7.4l.1.4.4.3-.4-.3v.5c.7 0 1.5-.2 2.1-.5l-.2-.5-.4-.3c-.5.7-1 1.2-1.6 1.5-.2.1-.3.3-.3.5v.9c0 2.8-1 5.1-2.9 7.1-1.8 1.8-4 2.8-6.6 2.9v.5-.5H6v.5-.4c-1.9 0-3.6-.5-5.1-1.4l-.2.4v.5h.1c1.8 0 3.4-.6 4.8-1.7.2-.1.2-.3.2-.5s-.2-.3-.4-.4c-1.8-.3-3-1.1-3.6-2.5l-.5.3-.2.4c.4.2.9.4 1.4.4.4 0 .9-.1 1.3-.3.1-.1.2-.3.2-.5s-.1-.4-.3-.5c-.8-.2-1.4-.6-1.8-1.1-.4-.5-.7-1-.8-1.6-.1-.2-.1-.4-.1-.6L.5 6l-.3.4c.6.3 1.2.5 1.8.5h.1c.2 0 .4-.1.5-.3s0-.4-.1-.5c-.9-1-1.3-1.9-1.3-2.9 0-.5.1-1.1.4-1.7l-.5-.2-.4.3c2.2 2.6 4.9 4 8.1 4h.1c.1 0 .3-.1.4-.2.1-.1.1-.2.1-.4s-.1-.5-.1-.7c0-.9.3-1.6 1-2.3.6-.6 1.4-1 2.3-1 .9 0 1.6.3 2.3 1l.2.2c.1.1.3.2.4.1.2 0 .4-.1.6-.1.7-.2 1.3-.4 1.9-.6l-.2-.5-.4-.3c-.3.5-.8 1-1.4 1.6-.1.1-.2.4-.1.5s.3.3.5.3v-.4z"/></g></switch></svg>