<svg version="1.1" id="Layer_1" xmlns="http://www.w3.org/2000/svg" x="0" y="0" width="23.5" height="15.9" xml:space="preserve"><switch><g><path d="M2.3.5V1h18.8c.5 0 .8.1 1 .3s.3.5.3 1v11.2c0 .5-.1.8-.3 1-.2.2-.5.3-1 .3H2.3c-.5 0-.8-.1-1-.3-.2-.2-.3-.5-.3-1V2.3c0-.5.1-.8.3-1 .2-.2.5-.3 1-.3V0C1.7 0 1 .2.6.6.2 1 0 1.7 0 2.3v11.2c0 .7.2 1.3.6 1.7.4.4 1 .6 1.7.6h18.8c.7 0 1.3-.2 1.7-.6s.6-1 .6-1.7V2.3c0-.7-.2-1.3-.6-1.7-.4-.4-1-.6-1.7-.6H2.3v.5z"/><path d="M9.6 4.4l-.3.4 4.5 3.4-3.7 2.5V4.4h-.5l-.3.4.3-.4h-.5v7.3c0 .2.1.4.3.4.2.1.4.1.5 0l5-3.4c.1-.1.2-.2.2-.4s-.1-.3-.2-.4L10 4c-.2-.1-.4-.2-.6-.1-.1.1-.3.3-.3.5h.5z"/></g></switch></svg>