<svg version="1.1" xmlns="http://www.w3.org/2000/svg" x="0" y="0" viewBox="0 0 34 36" xml:space="preserve"><path d="M16.991.111c-1.607-.026-3.138.989-4.301 2.725-.769 1.147-1.376 2.63-1.771 4.38h-.001l-5.537.067a.412.412 0 0 0-.401.34L.171 35.367a.411.411 0 0 0 .334.477l.075.006 32.844.04a.412.412 0 0 0 .411-.412l-.007-.078-5.485-28.06a.412.412 0 0 0-.407-.331l-5.066.061c-.515-1.873-1.172-3.355-1.934-4.457C19.799.97 18.407.133 16.994.111h-.003zm-.011.825c1.099.017 2.243.651 3.278 2.147.665.96 1.266 2.295 1.75 3.998l-10.236.125.042-.189c.374-1.499.915-2.756 1.561-3.721 1.06-1.583 2.354-2.38 3.605-2.36zm10.621 6.9l5.322 27.23-31.859-.039L5.733 8.103l5.018-.061a20.18 20.18 0 0 0-.23 1.738 1.025 1.025 0 0 0-.468.368 1.46 1.46 0 0 0-.249.841c0 .314.084.605.249.841.164.236.435.429.76.428.324 0 .598-.192.763-.428.149-.215.229-.477.243-.76l.028-.202a.915.915 0 0 0-.076-.285 1.374 1.374 0 0 0-.104-.277l-.003-.017-.072-.155-.13-.119-.123-.105c.058-.657.145-1.283.255-1.879l10.632-.129c.156.638.297 1.323.421 2.054l-.22.224a1.462 1.462 0 0 0-.249.841c0 .315.084.605.249.842.164.236.438.429.763.428s.595-.192.759-.428c.164-.236.249-.527.249-.842s-.085-.605-.249-.841a1.008 1.008 0 0 0-.484-.375 28.977 28.977 0 0 0-.386-1.914l4.522-.055zm-16.792 2.707l.011.001h.001l.076.073a.678.678 0 0 1 .103.371c0 .16-.051.296-.104.371l-.085.076-.085-.076c-.053-.075-.101-.211-.101-.371s.048-.295.101-.37l.083-.075zm12.404.041l.062.067c.052.074.1.211.1.37a.676.676 0 0 1-.1.371l-.085.076-.085-.073-.075-.175v-.001l.004-.153v-.043l-.002-.041-.014-.072.034-.148.001-.001.062-.081.091-.094.007-.002z"/></svg>