<svg version="1.1" xmlns="http://www.w3.org/2000/svg" x="0" y="0" viewBox="0 0 25 24" xml:space="preserve"><switch><g><path d="M9.5 9.8c0-.5.4-.8.8-.8s.8.4.8.8-.4.8-.8.8-.8-.4-.8-.8zm5.2.7c.4 0 .8-.3.8-.8 0-.4-.3-.8-.8-.8-.4.1-.7.4-.7.9 0 .4.3.7.7.7zM.3 23.1c0-4.3 5.4-6 7.7-6.5v-1c-.5-.7-.9-1.5-1.2-2.3-.6-.6-.9-1.5-1-2.1-.2-.8-.5-2 .2-2.9v-.7c-.3-2-.1-3.4.7-4.3.4-.5 1-.8 1.6-.9.4-1.3 2.2-2.6 3.9-2.2 1.6.3 5 0 5 0h.1l.1.1c0 .5-.2.9-.5 1.2 2.7 1.8 2.3 5.4 2 6.9.6.9.4 2.1.2 2.9-.1.5-.4 1.5-1 2.1-.2.8-.6 1.6-1.2 2.3v1c2.3.5 7.7 2.2 7.7 6.5 0 .5-.4.8-.8.8H1.2c-.5-.1-.9-.4-.9-.9zm15.8-5c-.4-.2-.7-.5-.8-1-.4.2-.8.5-1.2.6-1.1.4-2.2.4-3.3 0l-1.2-.6c-.1.4-.4.7-.8.9.8 1.2 2.2 1.8 3.6 1.8 1.5.1 2.9-.6 3.7-1.7zm-8-5.8l.1.1c.2 1.4 1.3 3.2 3.1 3.9.7.3 1.5.3 2.3 0 1.8-.6 2.9-2.4 3.1-3.9l.1-.1c.1 0 .4-.1.8-1.5.3-1.1.2-1.4.1-1.6-.1-.1-.2-.1-.4-.1l-.1-.1v-.2c.1-.2.4-1.5-.7-2.3-1 .2-2.5.3-4.6-.6-1-.4-1.9-.5-2.6 0C8 6.7 7.8 9 7.8 9l-.2.1h-.1c-.1 0-.2 0-.3.1-.1.2-.2.6.1 1.6.4 1.4.7 1.5.8 1.5zm2.1.5c.2 1.2 1.4 2 2.7 1.8.9-.2 1.6-.9 1.8-1.8 0-.2-.1-.4-.3-.4h-3.9c-.1 0-.2.1-.3.4z" fill="#5c5a5b"/></g></switch></svg>