<svg version="1.1" xmlns="http://www.w3.org/2000/svg" x="0" y="0" viewBox="0 0 212.018 53.5" xml:space="preserve"><path d="M46.303 22.455v17.968c-1.497.249-2.994.375-4.491.375s-2.995-.125-4.494-.375V24.451c0-3.557-1.684-5.428-5.052-5.428-2.308 0-3.743.873-4.804 1.623.062.625.124 1.186.124 1.81v17.968c-1.497.249-2.994.375-4.491.375s-2.994-.125-4.43-.375V24.451c0-3.557-1.746-5.428-5.116-5.428-1.996 0-3.555.562-4.617 1.186v20.215a27.332 27.332 0 0 1-4.492.375c-1.497 0-2.932-.125-4.43-.375V15.655c1.874-1.748 7.238-4.742 14.288-4.742 4.055 0 7.175.998 9.296 2.682a18.148 18.148 0 0 1 9.484-2.682c8.92 0 13.225 4.867 13.225 11.542m31.755 1.184v14.974c-4.241 1.747-9.234 2.808-14.411 2.808-8.174 0-12.914-3.12-12.914-9.357 0-5.991 5.177-9.11 12.477-9.049 2.308.064 4.243.314 5.99.875v-1.124c0-2.495-1.685-4.243-5.927-4.243-3.37 0-6.239 1.31-7.736 2.495-1.935-1.059-3.432-3.058-3.87-5.74 1.623-1.433 6.116-4.179 12.417-4.179 8.236.001 13.974 3.619 13.974 12.54M64.832 35.183c1.436 0 2.869-.249 4.305-.688v-5.239c-1.436-.437-3.056-.687-4.929-.687-2.808 0-4.553.936-4.553 3.056s1.745 3.558 5.177 3.558m46.544-22.71c-2.497 18.217-9.421 31.632-22.337 40.864-2.744-.936-4.553-3.619-5.365-6.177 3.181-2.557 5.989-5.114 7.798-7.609-5.863-9.046-8.483-16.847-10.731-27.143 1.25-.31 4.056-.685 6.552-.685 1.059 0 2.37.064 3.368.186 1.062 6.615 3.058 13.728 5.553 19.466.312.688.499 1.186.623 1.625a8.454 8.454 0 0 1 .501-1.625c2.495-5.802 3.867-12.788 4.678-19.466a34.749 34.749 0 0 1 3.557-.186c2.12.064 4.179.313 5.803.75m57.458-.625c-.062 2.933-.872 5.741-2.56 7.737-1.058-.313-2.183-.438-3.431-.438-1.87 0-3.429.375-4.367.812v20.462c-1.435.252-2.994.377-4.491.377s-2.932-.125-4.429-.377V15.342c1.996-1.808 6.427-4.367 12.664-4.367 2.748.001 4.931.313 6.614.873m28.514 11.791v14.974c-4.243 1.747-9.233 2.808-14.413 2.808-8.175 0-12.916-3.12-12.916-9.357.002-5.991 5.18-9.11 12.48-9.049 2.307.064 4.243.314 5.99.875v-1.124c0-2.495-1.688-4.243-5.928-4.243-3.367 0-6.239 1.31-7.736 2.495-1.934-1.059-3.433-3.058-3.867-5.74 1.623-1.433 6.114-4.179 12.415-4.179 8.233.001 13.975 3.619 13.975 12.54m-13.291 11.544c1.437 0 2.871-.249 4.307-.688v-5.239c-1.438-.437-3.061-.687-4.928-.687-2.811 0-4.556.936-4.556 3.056s1.745 3.558 5.177 3.558m18.966 5.304V1.054c1.373-.25 2.87-.375 4.369-.375 1.497 0 3.056.125 4.617.375v39.433c-1.375.248-2.936.372-4.431.372a58.414 58.414 0 0 1-4.555-.372m-73.805-29.576c-9.108 0-15.722 6.052-15.722 15.287 0 9.419 6.489 15.221 15.596 15.221 9.11 0 15.722-6.05 15.722-15.221 0-9.296-6.552-15.287-15.596-15.287m7.798 21.526h-15.097c-2.248-.187-4.057-2.12-4.057-4.431 0-2.12 1.497-3.932 3.556-4.304-.124-.499-.249-1.061-.249-1.622 0-3.184 2.56-5.74 5.74-5.74a5.7 5.7 0 0 1 5.615 4.616c.311-.063.625-.125.936-.125a4.113 4.113 0 0 1 4.118 4.117c0 .189 0 .375-.063.563 1.686.249 2.996 1.685 2.996 3.432-.064 1.933-1.625 3.494-3.495 3.494" fill-rule="evenodd" clip-rule="evenodd" fill="#0072CE"/></svg>