<svg version="1.1" id="Layer_1" xmlns="http://www.w3.org/2000/svg" x="0" y="0" width="107" height="27" xml:space="preserve"><switch><g><path d="M23.5 11.5v9c-.8.1-1.5.2-2.3.2s-1.5-.1-2.3-.2v-8c0-1.8-.8-2.7-2.5-2.7-1.2 0-1.9.4-2.4.8 0 .3.1.6.1.9v9c-.8.1-1.5.2-2.3.2s-1.5-.1-2.2-.2v-8c0-1.8-.9-2.7-2.6-2.7-1 0-1.8.3-2.3.6v10.2c-.8.1-1.5.2-2.3.2-.8 0-1.5-.1-2.2-.2V8c.9-.9 3.6-2.4 7.2-2.4 2 0 3.6.5 4.7 1.3 1.2-.7 2.8-1.3 4.8-1.3 4.4.1 6.6 2.5 6.6 5.9m15.9.6v7.5c-2.1.9-4.6 1.4-7.2 1.4-4.1 0-6.5-1.6-6.5-4.7 0-3 2.6-4.6 6.3-4.6 1.2 0 2.1.2 3 .4v-.6c0-1.3-.8-2.1-3-2.1-1.7 0-3.1.7-3.9 1.3-1-.5-1.7-1.5-1.9-2.9.8-.7 3.1-2.1 6.2-2.1 4.2.1 7 1.9 7 6.4m-6.6 5.8c.7 0 1.4-.1 2.2-.3V15c-.7-.2-1.5-.3-2.5-.3-1.4 0-2.3.5-2.3 1.5s.9 1.7 2.6 1.7M56.2 6.4c-1.3 9.2-4.7 16-11.2 20.6-1.4-.5-2.3-1.8-2.7-3.1 1.6-1.3 3-2.6 3.9-3.8-2.9-4.5-4.3-8.5-5.4-13.7.6-.2 2-.3 3.3-.3.5 0 1.2 0 1.7.1.5 3.3 1.5 6.9 2.8 9.8.2.3.3.6.3.8.1-.3.2-.6.3-.8 1.3-2.9 1.9-6.4 2.4-9.8.6-.1 1.2-.1 1.8-.1.9 0 2 .1 2.8.3m28.9-.3c0 1.5-.4 2.9-1.3 3.9-.5-.2-1.1-.2-1.7-.2-.9 0-1.7.2-2.2.4v10.3c-.7.1-1.5.2-2.3.2s-1.5-.1-2.2-.2V7.9c1-.9 3.2-2.2 6.4-2.2 1.4 0 2.5.2 3.3.4m14.3 6v7.5c-2.1.9-4.6 1.4-7.2 1.4-4.1 0-6.5-1.6-6.5-4.7 0-3 2.6-4.6 6.3-4.6 1.2 0 2.1.2 3 .4v-.6c0-1.3-.8-2.1-3-2.1-1.7 0-3.1.7-3.9 1.3-1-.5-1.7-1.5-1.9-2.9.8-.7 3.1-2.1 6.2-2.1 4.2.1 7 1.9 7 6.4m-6.6 5.8c.7 0 1.4-.1 2.2-.3V15c-.7-.2-1.5-.3-2.5-.3-1.4 0-2.3.5-2.3 1.5s.8 1.7 2.6 1.7m9.5 2.6V.7c.7-.1 1.4-.2 2.2-.2.8 0 1.5.1 2.3.2v19.8c-.7.1-1.5.2-2.2.2-.8 0-1.5-.1-2.3-.2M65.2 5.7c-4.6 0-7.9 3-7.9 7.7s3.3 7.7 7.8 7.7c4.6 0 7.9-3 7.9-7.7s-3.3-7.7-7.8-7.7m3.9 10.8h-7.6c-1.1-.1-2-1.1-2-2.2s.8-2 1.8-2.2c-.1-.3-.1-.5-.1-.8 0-1.6 1.3-2.9 2.9-2.9 1.4 0 2.6 1 2.8 2.3.2 0 .3-.1.5-.1 1.2 0 2.1.9 2.1 2.1v.3c.8.1 1.5.8 1.5 1.7-.2 1-1 1.8-1.9 1.8" fill-rule="evenodd" clip-rule="evenodd" fill="#0072ce"/></g></switch></svg>