<svg version="1.1" id="paidika_rouxa_online-Logo" xmlns="http://www.w3.org/2000/svg" x="0" y="0" width="66" height="66" xml:space="preserve"><path fill="#00ABBE" d="M65.865 32.366c0 9.356-4.007 17.776-10.398 23.635a32.344 32.344 0 0 1-5.287 3.932 31.906 31.906 0 0 1-16.371 4.49 31.927 31.927 0 0 1-15.707-4.105c-.663-.375-14.111 4.586-17.582 5.355-2.483.554 7.832-13.813 7.49-14.277a31.907 31.907 0 0 1-6.258-19.03C1.752 14.662 16.106.311 33.809.311c17.705 0 32.056 14.352 32.056 32.055"/><path fill="#32312F" d="M54.801 18.556c-3.666-1.222-10.863-3.938-12.086-4.481-.542-.271-1.221-.135-1.629.409-1.9 2.307-4.752 4.616-5.703 4.616s-3.802-2.309-5.702-4.616c-.408-.543-1.086-.679-1.63-.409-1.358.543-8.555 3.124-12.085 4.481-.679.136-.951.814-.951 1.493l1.358 11.407c0 .407.272.815.68.95.408.271.815.271 1.087.137l4.208-1.358c-.135 1.901-1.222 5.43-1.9 8.012-1.766 5.701-2.716 9.096-1.222 10.727 2.987 3.531 10.319 4.752 16.158 4.752s13.172-1.221 16.159-4.887c1.495-1.631.543-5.025-1.222-10.729-.814-2.58-1.9-6.111-1.9-8.011l4.209 1.357c.408.137.815.137 1.086-.135.408-.272.543-.544.678-.952l1.359-11.405c-.001-.543-.274-1.222-.952-1.358"/><path fill="#FFF" d="M53.307 17.248c-3.666-1.221-10.863-3.938-12.086-4.481-.543-.271-1.222-.135-1.629.408-1.9 2.309-4.754 4.617-5.704 4.617s-3.802-2.309-5.703-4.617c-.407-.543-1.086-.679-1.63-.408-1.359.543-8.555 3.124-12.085 4.481-.679.137-.951.814-.951 1.494l1.358 11.407c0 .407.272.815.679.951.408.271.815.271 1.087.136l4.208-1.357c-.135 1.9-1.221 5.431-1.9 8.011-1.766 5.701-2.716 9.098-1.221 10.728 2.987 3.53 10.319 4.753 16.158 4.753s13.172-1.223 16.159-4.889c1.494-1.629.543-5.025-1.223-10.729-.814-2.58-1.9-6.111-1.9-8.011l4.209 1.358c.408.136.815.136 1.088-.136.406-.272.543-.543.678-.951l1.358-11.406c0-.545-.273-1.223-.95-1.359"/><path fill="#00ABBE" d="M30.63 25.667a2.58 2.58 0 1 1-.001 5.16 2.58 2.58 0 0 1 .001-5.16m6.789 0a2.58 2.58 0 1 1-2.579 2.58 2.579 2.579 0 0 1 2.579-2.58m-6.789 6.79a2.58 2.58 0 1 1-.002 5.16 2.58 2.58 0 0 1 .002-5.16m6.789 0a2.58 2.58 0 1 1-2.579 2.581 2.578 2.578 0 0 1 2.579-2.581"/></svg>