<svg version="1.1" id="Layer_1" xmlns="http://www.w3.org/2000/svg" x="0" y="0" width="16.8" height="16" xml:space="preserve"><switch><g><path d="M4.8 1.6h3.7c.2 0 .5-.2.5-.5S8.7.6 8.5.6H4.8c-.3 0-.5.2-.5.5s.2.5.5.5"/><path d="M6.1 7.5c.4-.2.8-.5 1.1-.8l-.3-.4.3.4c.7-.7 1.1-1.6 1.1-2.5 0-1-.4-1.9-1.1-2.5l-.3.3.4-.4C6.6.9 5.8.6 4.9.6c-.3 0-.5.2-.5.5s.2.5.5.5c.7 0 1.2.2 1.7.7.4.6.7 1.1.7 1.9 0 .7-.3 1.3-.8 1.8-.3.2-.5.4-.8.6-.3.1-.4.4-.3.6s.4.4.7.3z"/><path d="M4.8.6h-.2c-.9 0-1.8.4-2.4 1-.7.7-1 1.6-1 2.5 0 1 .4 1.8 1 2.5.7.7 1.6 1 2.5 1 .5 0 .9-.1 1.4-.3.3-.1.4-.4.3-.7s-.5-.2-.7 0c-.3.1-.6.2-1 .2-.7-.1-1.3-.3-1.8-.8s-.8-1.1-.8-1.8.2-1.3.7-1.8c.5-.5 1.1-.7 1.7-.7v-.5.5h.2c.3 0 .5-.2.5-.5S5 .6 4.8.6zM7 10l.2-.5c-.7-.3-1.5-.4-2.4-.4-1.3 0-2.4.3-3.3 1-.5.3-.8.7-1.1 1.1-.3.4-.4.8-.4 1.3s.1 1 .4 1.4c.3.4.6.8 1.1 1.1.9.7 2 1 3.3 1 1.3 0 2.4-.3 3.3-1 .5-.3.8-.7 1.1-1.1.3-.4.4-.9.4-1.4 0-.5-.1-1-.4-1.4-.3-.4-.6-.8-1.1-1.1-.1 0-.2-.1-.4-.2-.1-.1-.3-.2-.5-.3L7 10l.2-.5-.2.5-.2.5c.1 0 .3.1.4.2l.2-.4-.2.4c.1 0 .2.1.3.2l.3-.4-.3.4c.4.3.6.5.8.8.2.3.2.6.2.9 0 .3-.1.6-.2.9-.2.3-.4.5-.8.8-.7.5-1.6.7-2.7.7s-2-.3-2.7-.8c-.4-.3-.6-.5-.8-.8-.2-.2-.3-.5-.3-.9 0-.3.1-.6.2-.9.2-.3.4-.5.8-.8.7-.5 1.6-.8 2.7-.8.8 0 1.5.1 2 .4L7 10z"/><path d="M7.3 9.6c-.5-.3-.8-.6-1-.8-.2-.2-.2-.5-.2-.7 0-.2.1-.5.2-.8.1-.2 0-.5-.2-.7-.2-.1-.5 0-.7.2-.2.4-.3.8-.3 1.3s.2.9.5 1.3.7.7 1.2 1c.2.1.5 0 .7-.2.1-.2 0-.5-.2-.6zm5.3-5.4h3.6c.3 0 .5-.2.5-.5s-.2-.5-.5-.5h-3.6c-.3 0-.5.2-.5.5s.3.5.5.5"/><path d="M13.1 7V3.7c0-.3-.2-.5-.5-.5s-.5.2-.5.5V7c0 .3.2.5.5.5s.5-.2.5-.5"/><path d="M12.1.5v3.2c0 .3.2.5.5.5s.5-.2.5-.5V.5c0-.3-.2-.5-.5-.5s-.5.2-.5.5"/><path d="M12.6 3.2H9.4c-.3 0-.5.2-.5.5s.2.5.5.5h3.3c.3 0 .5-.2.5-.5s-.3-.5-.6-.5"/></g></switch></svg>