<?xml version="1.0" encoding="iso-8859-1"?>
<!-- Generator: Adobe Illustrator 16.0.0, SVG Export Plug-In . SVG Version: 6.00 Build 0)  -->
<!DOCTYPE svg PUBLIC "-//W3C//DTD SVG 1.1//EN" "http://www.w3.org/Graphics/SVG/1.1/DTD/svg11.dtd">
<svg version="1.1" id="Layer_1" xmlns="http://www.w3.org/2000/svg" xmlns:xlink="http://www.w3.org/1999/xlink" x="0px" y="0px"
	 width="48px" height="48px" viewBox="0 0 48 48" style="enable-background:new 0 0 48 48;" xml:space="preserve">
<g>
	<path style="fill:#FF1300;" d="M17.7,29.9v-3.6c0-0.5-0.3-0.7-0.7-0.3l-6.8,5.6c-0.4,0.3-0.4,0.8,0,1.2l6.8,5.6
		c0.4,0.3,0.7,0.2,0.7-0.3v-3.6h12.7V38c0,0.5,0.3,0.7,0.7,0.3l6.8-5.6c0.4-0.3,0.4-0.8,0-1.2L31,25.9c-0.4-0.3-0.7-0.2-0.7,0.3v3.6
		H17.7z M40.3,4.5h3.6c2,0,3.6,1.6,3.6,3.6v36.2c0,2-1.6,3.6-3.6,3.6H4.1c-2,0-3.6-1.6-3.6-3.6V8.2c0-2,1.6-3.6,3.6-3.6h3.6V9
		c0,2,1.6,3.6,3.6,3.6h1.8c2,0,3.6-1.6,3.6-3.6V4.5h14.5V9c0,2,1.6,3.6,3.6,3.6h1.8c2,0,3.6-1.6,3.6-3.6V4.5z M9.5,1.8
		c0-1,0.8-1.8,1.8-1.8h1.8c1,0,1.8,0.8,1.8,1.8V9c0,1-0.8,1.8-1.8,1.8h-1.8c-1,0-1.8-0.8-1.8-1.8V1.8z M33.1,1.8
		c0-1,0.8-1.8,1.8-1.8h1.8c1,0,1.8,0.8,1.8,1.8V9c0,1-0.8,1.8-1.8,1.8h-1.8c-1,0-1.8-0.8-1.8-1.8V1.8z"/>
</g>
</svg>
